UNKNOWN
version=1
nRows=38
nColumns=9
inDegrees=no
endheader
time	time	pelvis_tilt	hip_flexion_r	knee_angle_r	ankle_angle_r	hip_flexion_l	knee_angle_l	ankle_angle_l
     88.00000000	      5.25000000	     -7.70590957	    -32.89931887	    -12.26533326	      4.97375992	      9.22900512	     -3.80631766	      3.04676828
     89.00000000	      5.26000000	     -7.11088930	    -32.46192494	    -14.90194442	      4.17500119	      9.00941407	     -5.41946506	      1.79736508
     90.00000000	      5.27000000	     -6.20010198	    -31.49251569	    -18.36244614	      3.08097157	      8.53378723	     -6.05031053	     -0.38882133
     91.00000000	      5.28000000	     -4.67808660	    -30.37394274	    -21.39597962	      1.41075347	      8.05481887	     -6.73750276	     -3.59438503
     92.00000000	      5.29000000	     -3.82439565	    -29.22567763	    -25.09918714	     -0.79525529	      7.89466685	     -8.59927341	     -4.42653660
     93.00000000	      5.30000000	     -2.15555059	    -27.71001642	    -28.51260496	     -4.57324265	      7.73232994	    -10.04408175	     -4.63067452
     94.00000000	      5.31000000	     -1.16260846	    -26.36620603	    -32.43103997	     -7.19056801	      7.58208413	    -12.32363360	     -5.03626357
     95.00000000	      5.32000000	      0.69149145	    -24.50531584	    -35.98502769	    -12.62897760	      7.33191536	    -13.37130807	     -3.18560187
     96.00000000	      5.33000000	      1.51795361	    -23.01047249	    -39.92948183	    -15.63518092	      6.93378151	    -15.23831108	     -3.17465930
     97.00000000	      5.34000000	      2.81727514	    -21.04461325	    -42.94310837	    -21.72406915	      6.39330546	    -15.76491485	     -0.80681614
     98.00000000	      5.35000000	      3.23320900	    -19.10969500	    -46.16003880	    -25.99151104	      5.77260925	    -16.61238213	      0.18691420
     99.00000000	      5.36000000	      3.32859048	    -17.65972684	    -48.95982476	    -27.29604399	      4.71279471	    -17.03859305	      0.37398643
    100.00000000	      5.37000000	      3.72250852	    -15.72162019	    -51.90755910	    -28.56410703	      3.70117595	    -17.40188924	      2.02741438
    101.00000000	      5.38000000	      3.45580078	    -13.97411047	    -54.42657411	    -28.31785808	      2.64518950	    -17.69604391	      2.23693204
    102.00000000	      5.39000000	      3.23408768	    -12.29950267	    -56.20327374	    -26.45031793	      1.35131667	    -17.38809646	      3.02004801
    103.00000000	      5.40000000	      2.84612409	    -10.80995831	    -57.42327450	    -25.87195051	     -0.01158381	    -16.58985010	      3.34429793
    104.00000000	      5.41000000	      2.59653062	     -8.91062287	    -59.00668227	    -22.73995571	     -1.25128012	    -16.37603145	      3.85105242
    105.00000000	      5.42000000	      2.22951060	     -7.22755826	    -59.75274591	    -22.21956342	     -2.56409288	    -15.56896438	      4.14712392
    106.00000000	      5.43000000	      2.44233250	     -4.83981384	    -61.09942544	    -19.05296689	     -3.72000665	    -14.82777754	      4.41294076
    107.00000000	      5.44000000	      2.09198723	     -3.09760302	    -61.25996179	    -18.77645616	     -4.93536162	    -14.08005708	      4.62964494
    108.00000000	      5.45000000	      2.23518238	     -0.54248175	    -61.80291885	    -15.29012012	     -5.95561490	    -12.94246407	      4.07416401
    109.00000000	      5.46000000	      2.01574312	      1.12072652	    -61.58938140	    -15.05610098	     -7.02574447	    -12.39687239	      4.29804765
    110.00000000	      5.47000000	      1.67087303	      2.59392330	    -60.79288306	    -13.88408727	     -8.25407955	    -11.46597392	      4.69817637
    111.00000000	      5.48000000	      1.31847479	      4.12518001	    -59.82006693	    -12.30981820	     -9.25521272	    -10.83236099	      4.98600042
    112.00000000	      5.49000000	      1.05358274	      5.55759402	    -58.65132118	    -10.56630367	    -10.29025466	    -10.17055144	      5.28074577
    113.00000000	      5.50000000	      1.03133347	      7.08364192	    -57.55869183	    -10.10014234	    -11.15927980	     -9.95928484	      5.42519186
    114.00000000	      5.51000000	      0.69428953	      8.21982147	    -55.58986223	     -7.73749842	    -12.37664203	     -8.83633573	      5.93196479
    115.00000000	      5.52000000	      0.73152477	      8.72092580	    -53.78305660	     -4.13502043	    -13.88842651	     -8.26190124	      6.19037127
    116.00000000	      5.53000000	      0.96149868	     10.06612738	    -51.95400814	     -3.89801184	    -14.77966433	     -7.86366197	      6.47742557
    117.00000000	      5.54000000	      0.85814115	     10.99644478	    -49.46120890	     -3.08172879	    -16.01152627	     -6.74888042	      7.14152697
    118.00000000	      5.55000000	      1.25271338	     12.12988867	    -47.08141052	     -2.82541871	    -16.81081528	     -6.46788718	      7.29726754
    119.00000000	      5.56000000	      0.84653230	     12.14381654	    -43.21200992	     -2.01850009	    -18.01993876	     -5.57838217	      7.49042485
    120.00000000	      5.57000000	      1.39963946	     13.03842669	    -40.51883899	     -1.78917339	    -18.95720791	     -5.15180392	      7.72924683
    121.00000000	      5.58000000	      1.96979783	     13.80332048	    -37.47575350	     -1.49233847	    -19.87499691	     -4.60115936	      8.01443204
    122.00000000	      5.59000000	      1.22370884	     12.55838541	    -32.57098272	     -0.83927522	    -21.74959646	     -3.44227089	      8.68679513
    123.00000000	      5.60000000	      1.96414054	     13.20294812	    -29.25039814	     -0.30267226	    -22.60520961	     -2.97354072	      8.90367618
    124.00000000	      5.61000000	      1.61331728	     12.72819343	    -24.35966280	      0.04444246	    -23.81629171	     -2.43501185	      9.52152734
    125.00000000	      5.62000000	      1.59739751	     12.01912220	    -19.79486938	      0.49067411	    -25.21096292	     -2.01580574	      9.72039759
